HIERARCHY
ROOT character_B_root
{
	OFFSET 0.000000 0.000000 0.000000
	CHANNELS 6 Xposition Yposition Zposition Xrotation Yrotation Zrotation
	JOINT character_B_pelvis
	{
		OFFSET 0.000000 0.000000 0.000000
		CHANNELS 3 Xrotation Yrotation Zrotation
		JOINT character_B_spine
		{
			OFFSET -0.005949 0.551378 0.000000
			CHANNELS 3 Xrotation Yrotation Zrotation
			JOINT character_B_head
			{
				OFFSET -0.011221 0.241134 0.000000
				CHANNELS 3 Xrotation Yrotation Zrotation
				JOINT character_B_nose
				{
					OFFSET -0.004159 -0.142665 -0.000261
					CHANNELS 3 Xrotation Yrotation Zrotation
					End Site
					{
						OFFSET 0.000000 0.050000 0.000000
					}
				}
			}
			JOINT character_B_left_shoulder
			{
				OFFSET 0.093188 -0.066956 0.092540
				CHANNELS 3 Xrotation Yrotation Zrotation
				JOINT character_B_left_elbow
				{
					OFFSET 0.026481 -0.252143 -0.089385
					CHANNELS 3 Xrotation Yrotation Zrotation
					JOINT character_B_left_wrist
					{
						OFFSET -0.001396 -0.164778 -0.154831
						CHANNELS 3 Xrotation Yrotation Zrotation
						End Site
						{
							OFFSET 0.000000 0.050000 0.000000
						}
					}
				}
			}
			JOINT character_B_right_shoulder
			{
				OFFSET -0.052646 -0.054758 0.152841
				CHANNELS 3 Xrotation Yrotation Zrotation
				JOINT character_B_right_elbow
				{
					OFFSET -0.025750 -0.252567 -0.055740
					CHANNELS 3 Xrotation Yrotation Zrotation
					JOINT character_B_right_wrist
					{
						OFFSET 0.022565 -0.178373 -0.161123
						CHANNELS 3 Xrotation Yrotation Zrotation
						End Site
						{
							OFFSET 0.000000 0.050000 0.000000
						}
					}
				}
			}
		}
		JOINT character_B_left_hip
		{
			OFFSET 0.053047 -0.014449 0.105832
			CHANNELS 3 Xrotation Yrotation Zrotation
			JOINT character_B_left_knee
			{
				OFFSET 0.010852 -0.388560 0.128200
				CHANNELS 3 Xrotation Yrotation Zrotation
				JOINT character_B_left_ankle
				{
					OFFSET -0.005897 -0.374408 0.161260
					CHANNELS 3 Xrotation Yrotation Zrotation
					JOINT character_B_left_big_toe
					{
						OFFSET 0.012109 -0.098215 0.034452
						CHANNELS 3 Xrotation Yrotation Zrotation
						End Site
						{
							OFFSET 0.000000 0.050000 0.000000
						}
					}
					JOINT character_B_left_small_toe
					{
						OFFSET 0.041617 -0.095586 0.019459
						CHANNELS 3 Xrotation Yrotation Zrotation
						End Site
						{
							OFFSET 0.000000 0.050000 0.000000
						}
					}
					JOINT character_B_left_heel
					{
						OFFSET -0.014884 -0.052778 0.025198
						CHANNELS 3 Xrotation Yrotation Zrotation
						End Site
						{
							OFFSET 0.000000 0.050000 0.000000
						}
					}
				}
			}
		}
		JOINT character_B_right_hip
		{
			OFFSET -0.043381 -0.011457 0.270438
			CHANNELS 3 Xrotation Yrotation Zrotation
			JOINT character_B_right_knee
			{
				OFFSET 0.014721 -0.382947 0.164918
				CHANNELS 3 Xrotation Yrotation Zrotation
				JOINT character_B_right_ankle
				{
					OFFSET 0.029970 -0.363014 0.179744
					CHANNELS 3 Xrotation Yrotation Zrotation
					JOINT character_B_right_big_toe
					{
						OFFSET 0.007171 -0.100675 0.041990
						CHANNELS 3 Xrotation Yrotation Zrotation
						End Site
						{
							OFFSET 0.000000 0.050000 0.000000
						}
					}
					JOINT character_B_right_small_toe
					{
						OFFSET -0.022736 -0.093093 0.035638
						CHANNELS 3 Xrotation Yrotation Zrotation
						End Site
						{
							OFFSET 0.000000 0.050000 0.000000
						}
					}
					JOINT character_B_right_heel
					{
						OFFSET 0.012696 -0.052984 0.028899
						CHANNELS 3 Xrotation Yrotation Zrotation
						End Site
						{
							OFFSET 0.000000 0.050000 0.000000
						}
					}
				}
			}
		}
	}
}
MOTION
Frames: 8
Frame Time: 0.03333333
0.453137 -0.282521 1.353322 0.000000 0.000000 0.000000 3.318233 4.407842 8.315239 23.781232 -20.495971 6.640132 -27.043551 17.329187 2.477278 0.000000 0.000000 0.000000 -4.234658 13.835039 5.628890 -16.671591 4.951643 -15.704112 0.000000 0.000000 -0.000000 -12.639287 15.306907 -20.068118 -14.831907 -17.159530 25.126762 -0.000000 0.000000 0.000000 -11.491240 0.255880 3.318386 5.976415 -0.560672 -3.164408 -17.920926 -8.205694 6.992488 -0.000000 0.000000 0.000000 -0.000000 0.000000 0.000000 -0.000000 0.000000 0.000000 -4.236803 0.235402 0.953097 -7.271402 -9.532409 -24.414094 -12.434637 -4.531611 5.977908 0.000000 0.000000 -0.000000 0.000000 0.000000 -0.000000 0.000000 0.000000 -0.000000
0.441120 -0.276402 1.349300 0.000000 0.000000 0.000000 3.689813 4.856993 8.063348 24.731550 -20.966564 7.847581 -28.116349 17.816018 1.689900 -0.000000 0.000000 -0.000000 -6.464937 13.961479 6.818113 -16.767706 5.846694 -16.733886 -0.000000 0.000000 0.000000 -12.829379 15.278663 -19.079051 -17.011252 -15.750062 22.356642 0.000000 0.000000 -0.000000 -11.754006 -0.451252 2.390710 5.986948 -0.472067 -2.815128 -19.374533 -10.203389 6.880112 0.000000 0.000000 0.000000 0.000000 0.000000 0.000000 0.000000 0.000000 0.000000 -4.559906 0.113648 1.827134 -7.308214 -9.307535 -24.045641 -13.867223 -4.374235 4.108752 0.000000 0.000000 -0.000000 0.000000 0.000000 -0.000000 0.000000 0.000000 -0.000000
0.430511 -0.271607 1.342732 0.000000 0.000000 0.000000 3.994744 4.965234 7.937570 25.187999 -20.935013 8.366014 -28.765487 17.922757 1.010512 0.000000 0.000000 0.000000 -8.341627 13.771542 8.056975 -16.565260 6.729757 -17.743248 0.000000 0.000000 -0.000000 -12.980366 15.059191 -17.979468 -18.042113 -14.519767 20.311062 -0.000000 0.000000 -0.000000 -12.117291 -0.716763 1.761319 6.232782 -0.456450 -2.632424 -21.223151 -10.229287 6.298722 0.000000 0.000000 0.000000 0.000000 0.000000 0.000000 0.000000 0.000000 0.000000 -5.297474 0.104291 2.038889 -6.524601 -9.222051 -23.592063 -15.267283 -2.354298 2.761659 0.000000 0.000000 -0.000000 0.000000 0.000000 -0.000000 0.000000 0.000000 -0.000000
0.416190 -0.266609 1.322192 0.000000 0.000000 0.000000 4.143169 4.785760 7.850107 25.535076 -20.685326 8.479539 -29.225498 17.929838 0.514790 0.000000 0.000000 0.000000 -9.012031 13.636777 8.962366 -16.753248 7.157921 -18.332399 -0.000000 0.000000 -0.000000 -12.560228 14.674265 -16.913874 -19.163203 -13.269886 18.474439 0.000000 0.000000 0.000000 -11.740826 -0.805589 0.932549 5.201268 -0.105771 -1.944283 -21.425520 -12.131162 5.895184 -0.000000 0.000000 0.000000 -0.000000 0.000000 0.000000 -0.000000 0.000000 0.000000 -5.685422 0.381013 2.320500 -5.923208 -9.331812 -23.639899 -15.389068 -3.027612 2.572787 -0.000000 0.000000 0.000000 -0.000000 0.000000 0.000000 -0.000000 0.000000 0.000000
0.398410 -0.260549 1.293382 0.000000 0.000000 0.000000 4.276300 4.871502 7.671403 25.967558 -20.834956 8.908580 -29.690959 18.160499 0.262699 -0.000000 0.000000 0.000000 -10.148767 13.720071 9.669886 -15.951086 7.356306 -18.882126 0.000000 0.000000 0.000000 -12.217340 14.560683 -15.917193 -19.241500 -11.449795 16.511076 0.000000 0.000000 -0.000000 -11.403958 -1.225601 -0.036101 4.115440 0.276443 -1.100556 -20.934893 -12.872133 5.447541 -0.000000 0.000000 -0.000000 -0.000000 0.000000 -0.000000 -0.000000 0.000000 -0.000000 -5.719377 -0.009714 1.753933 -5.677320 -8.824622 -22.128888 -15.824612 -2.206428 1.183858 -0.000000 0.000000 -0.000000 -0.000000 0.000000 -0.000000 -0.000000 0.000000 -0.000000
0.377950 -0.254823 1.264253 0.000000 0.000000 0.000000 4.376593 5.015508 7.414860 26.385355 -21.013365 9.397547 -30.087037 18.380130 0.525101 0.000000 0.000000 -0.000000 -11.570594 13.798074 10.285808 -14.690757 7.568279 -19.468781 0.000000 0.000000 -0.000000 -12.009505 14.544204 -15.133169 -19.402297 -10.017351 14.863206 0.000000 0.000000 -0.000000 -11.436407 -1.570547 -0.433986 3.790385 0.246685 -1.154465 -21.260018 -11.953434 4.509306 0.000000 0.000000 0.000000 0.000000 0.000000 0.000000 0.000000 0.000000 0.000000 -6.027166 -0.561109 1.021835 -5.179840 -8.231961 -20.375678 -15.719666 -2.002018 0.550135 0.000000 0.000000 0.000000 0.000000 0.000000 0.000000 0.000000 0.000000 0.000000
0.354664 -0.249391 1.228078 0.000000 0.000000 0.000000 4.261221 4.871390 7.104291 27.080024 -21.193898 9.962818 -30.492070 18.893827 0.668446 -0.000000 0.000000 0.000000 -12.387904 14.268559 10.431786 -14.020619 7.682298 -19.776255 0.000000 0.000000 -0.000000 -11.886018 14.871093 -14.535387 -19.150467 -8.670118 13.439575 -0.000000 0.000000 0.000000 -11.834016 -1.660120 -0.786268 4.244140 0.268218 -0.962745 -21.554091 -14.420904 5.225760 -0.000000 0.000000 0.000000 -0.000000 0.000000 0.000000 -0.000000 0.000000 0.000000 -6.419559 -0.877999 0.314069 -4.051751 -7.711268 -18.637008 -16.250847 -1.325499 -0.707442 -0.000000 0.000000 -0.000000 -0.000000 0.000000 -0.000000 -0.000000 0.000000 -0.000000
0.332343 -0.243738 1.204546 0.000000 0.000000 0.000000 4.283129 4.956958 6.858780 27.710749 -21.399661 10.625953 -30.969044 19.275292 1.080200 0.000000 0.000000 0.000000 -13.888757 14.505932 10.743506 -12.817403 7.894648 -20.264046 0.000000 0.000000 0.000000 -11.913467 15.070737 -14.182013 -18.450164 -7.352778 12.209962 -0.000000 0.000000 -0.000000 -11.804731 -1.980281 -1.274633 4.068868 0.325530 -0.747299 -21.093197 -16.144018 5.984741 0.000000 0.000000 0.000000 0.000000 0.000000 0.000000 0.000000 0.000000 0.000000 -6.749336 -1.244193 -0.110768 -2.612054 -7.539255 -17.634339 -18.943411 -0.786787 -2.087821 0.000000 0.000000 -0.000000 0.000000 0.000000 -0.000000 0.000000 0.000000 -0.000000
